<?xml version="1.0" encoding="UTF-8"?>
<svg xmlns="http://www.w3.org/2000/svg" viewBox="0 0 128 128" width="128" height="128">
  <defs>
    <linearGradient id="bg" x1="0" y1="0" x2="1" y2="1">
      <stop offset="0%" stop-color="#60a5fa"/>
      <stop offset="100%" stop-color="#2563eb"/>
    </linearGradient>
  </defs>
  <!-- Rounded square background -->
  <rect x="4" y="4" width="120" height="120" rx="24" ry="24" fill="url(#bg)"/>
  <!-- Speech bubble -->
  <path d="M28 28 L100 28 Q108 28 108 36 L108 72 Q108 80 100 80 L52 80 L32 100 L40 80 L28 80 Q20 80 20 72 L20 36 Q20 28 28 28 Z" fill="white" opacity="0.95"/>
  <!-- Comment lines -->
  <rect x="32" y="40" width="44" height="5" rx="2.5" fill="#3b82f6" opacity="0.5"/>
  <rect x="32" y="50" width="36" height="5" rx="2.5" fill="#3b82f6" opacity="0.5"/>
  <rect x="32" y="60" width="40" height="5" rx="2.5" fill="#3b82f6" opacity="0.5"/>
  <!-- Export arrow -->
  <path d="M72 50 L72 42 L96 56 L72 70 L72 62 L56 62 L56 50 Z" fill="#1d4ed8"/>
</svg>